<svg xmlns="http://www.w3.org/2000/svg" viewBox="0 0 1200 630" width="1200" height="630" role="img" aria-label="Yoke"><style> svg { color: #14161a; } </style><rect width="1200" height="630" fill="#fafafa"/><g transform="translate(296.43 199.0) scale(1.1434)"><g><path id="yoke-connector" d="M 112.41 106.36 L 112.54 103.77 L 112.94 100.88 L 113.59 97.78 L 114.56 94.72 L 115.72 92.11 L 117.41 89.52 L 118.03 88.72 L 120.27 86.24 L 123.20 83.29 L 124.39 82.25 L 125.10 81.71 L 151.80 64.19 L 152.89 63.33 L 153.86 62.22 L 154.59 60.94 L 154.97 59.92 L 155.20 58.82 L 155.24 57.34 L 155.00 55.89 L 154.64 54.87 L 153.93 53.58 L 152.98 52.45 L 151.82 51.54 L 150.83 50.99 L 149.82 50.62 L 148.71 50.39 L 147.63 50.33 L 146.50 50.43 L 145.45 50.69 L 144.40 51.11 L 143.54 51.60 L 108.73 74.46 L 107.53 75.09 L 106.89 75.31 L 106.24 75.47 L 104.89 75.60 L 103.54 75.47 L 102.89 75.31 L 101.63 74.80 L 101.05 74.46 L 66.24 51.60 L 65.38 51.11 L 64.33 50.69 L 63.28 50.43 L 61.81 50.33 L 60.68 50.45 L 59.64 50.72 L 58.29 51.33 L 57.36 51.97 L 56.56 52.70 L 55.66 53.87 L 55.01 55.19 L 54.62 56.61 L 54.53 58.08 L 54.72 59.54 L 55.19 60.94 L 55.73 61.93 L 56.65 63.09 L 57.19 63.59 L 57.98 64.19 L 84.72 81.74 L 85.44 82.28 L 86.59 83.29 L 89.26 85.97 L 91.76 88.72 L 92.38 89.52 L 94.07 92.11 L 95.23 94.72 L 96.20 97.78 L 96.85 100.88 L 97.31 104.43 L 97.36 106.10 L 97.36 133.99 L 97.48 135.38 L 97.75 136.43 L 98.18 137.47 L 98.74 138.40 L 99.45 139.27 L 99.99 139.78 L 100.86 140.43 L 101.85 140.96 L 102.87 141.32 L 104.32 141.58 L 105.80 141.54 L 107.24 141.22 L 108.58 140.63 L 109.79 139.78 L 110.81 138.72 L 111.60 137.47 L 112.13 136.10 L 112.35 134.99 L 112.41 133.99 L 112.41 106.36 Z" fill="currentColor"/><circle id="yoke-ring-left" cx="38.30" cy="38.34" r="30.74" fill="none" stroke="currentColor" stroke-width="15.05"/><circle id="yoke-ring-right" cx="171.49" cy="38.34" r="30.74" fill="none" stroke="currentColor" stroke-width="15.05"/><path id="yoke-triangle" d="M 104.89 128.08 L 67.50 195.32 L 142.28 195.32 Z" fill="none" stroke="currentColor" stroke-width="15.05" stroke-linejoin="round"/></g><g transform="translate(159 0)"><circle cx="60" cy="142.9" r="52.48" fill="none" stroke="currentColor" stroke-width="15.05" stroke-linecap="round" stroke-linejoin="round"/></g><g transform="translate(295 0)"><path d="M 7.53 7.53 L 7.53 195.38 M 92.47 85.95 L 7.53 145.53 L 92.47 190.9" fill="none" stroke="currentColor" stroke-width="15.05" stroke-linecap="round" stroke-linejoin="round"/><circle cx="92.47" cy="85.95" r="12" fill="currentColor" stroke="none"/><circle cx="92.47" cy="190.9" r="12" fill="currentColor" stroke="none"/></g><g transform="translate(411 0)"><path d="M 7.53 142.9 L 112.47 142.9 M 112.47 142.9 A 52.48 52.48 0 1 0 100.2 176.63" fill="none" stroke="currentColor" stroke-width="15.05" stroke-linecap="round" stroke-linejoin="round"/><circle cx="100.2" cy="176.63" r="12" fill="currentColor" stroke="none"/></g></g></svg>
