<svg class="rich-terminal" viewBox="0 0 1238 830.8" xmlns="http://www.w3.org/2000/svg">
    <!-- Generated with Rich https://www.textualize.io -->
    <style>

    @font-face {
        font-family: "Fira Code";
        src: local("FiraCode-Regular"),
                url("https://cdnjs.cloudflare.com/ajax/libs/firacode/{{VERSION}}/woff2/FiraCode-Regular.woff2") format("woff2"),
                url("https://cdnjs.cloudflare.com/ajax/libs/firacode/{{VERSION}}/woff/FiraCode-Regular.woff") format("woff");
        font-style: normal;
        font-weight: 400;
    }
    @font-face {
        font-family: "Fira Code";
        src: local("FiraCode-Bold"),
                url("https://cdnjs.cloudflare.com/ajax/libs/firacode/{{VERSION}}/woff2/FiraCode-Bold.woff2") format("woff2"),
                url("https://cdnjs.cloudflare.com/ajax/libs/firacode/{{VERSION}}/woff/FiraCode-Bold.woff") format("woff");
        font-style: bold;
        font-weight: 700;
    }

    .terminal-YOKE-matrix {
        font-family: Fira Code, monospace;
        font-size: 20px;
        line-height: 24.4px;
        font-variant-east-asian: full-width;
    }

    .terminal-YOKE-title {
        font-size: 18px;
        font-weight: bold;
        font-family: arial;
    }

    .terminal-YOKE-r1 { fill: #c5c8c6 }
.terminal-YOKE-r2 { fill: #3fb950;font-weight: bold }
.terminal-YOKE-r3 { fill: #e6edf3 }
.terminal-YOKE-r4 { fill: #7d8590 }
.terminal-YOKE-r5 { fill: #6e7681 }
.terminal-YOKE-r6 { fill: #56d364;font-weight: bold }
.terminal-YOKE-r7 { fill: #21262d }
.terminal-YOKE-r8 { fill: #e6edf3;font-weight: bold }
.terminal-YOKE-r9 { fill: #3fb950 }
.terminal-YOKE-r10 { fill: #00ff00 }
.terminal-YOKE-r11 { fill: #585d65 }
    </style>

    <defs>
    <clipPath id="terminal-YOKE-clip-terminal">
      <rect x="0" y="0" width="1219.0" height="779.8" />
    </clipPath>
    <clipPath id="terminal-YOKE-line-0">
    <rect x="0" y="1.5" width="1220" height="24.65"/>
            </clipPath>
<clipPath id="terminal-YOKE-line-1">
    <rect x="0" y="25.9" width="1220" height="24.65"/>
            </clipPath>
<clipPath id="terminal-YOKE-line-2">
    <rect x="0" y="50.3" width="1220" height="24.65"/>
            </clipPath>
<clipPath id="terminal-YOKE-line-3">
    <rect x="0" y="74.7" width="1220" height="24.65"/>
            </clipPath>
<clipPath id="terminal-YOKE-line-4">
    <rect x="0" y="99.1" width="1220" height="24.65"/>
            </clipPath>
<clipPath id="terminal-YOKE-line-5">
    <rect x="0" y="123.5" width="1220" height="24.65"/>
            </clipPath>
<clipPath id="terminal-YOKE-line-6">
    <rect x="0" y="147.9" width="1220" height="24.65"/>
            </clipPath>
<clipPath id="terminal-YOKE-line-7">
    <rect x="0" y="172.3" width="1220" height="24.65"/>
            </clipPath>
<clipPath id="terminal-YOKE-line-8">
    <rect x="0" y="196.7" width="1220" height="24.65"/>
            </clipPath>
<clipPath id="terminal-YOKE-line-9">
    <rect x="0" y="221.1" width="1220" height="24.65"/>
            </clipPath>
<clipPath id="terminal-YOKE-line-10">
    <rect x="0" y="245.5" width="1220" height="24.65"/>
            </clipPath>
<clipPath id="terminal-YOKE-line-11">
    <rect x="0" y="269.9" width="1220" height="24.65"/>
            </clipPath>
<clipPath id="terminal-YOKE-line-12">
    <rect x="0" y="294.3" width="1220" height="24.65"/>
            </clipPath>
<clipPath id="terminal-YOKE-line-13">
    <rect x="0" y="318.7" width="1220" height="24.65"/>
            </clipPath>
<clipPath id="terminal-YOKE-line-14">
    <rect x="0" y="343.1" width="1220" height="24.65"/>
            </clipPath>
<clipPath id="terminal-YOKE-line-15">
    <rect x="0" y="367.5" width="1220" height="24.65"/>
            </clipPath>
<clipPath id="terminal-YOKE-line-16">
    <rect x="0" y="391.9" width="1220" height="24.65"/>
            </clipPath>
<clipPath id="terminal-YOKE-line-17">
    <rect x="0" y="416.3" width="1220" height="24.65"/>
            </clipPath>
<clipPath id="terminal-YOKE-line-18">
    <rect x="0" y="440.7" width="1220" height="24.65"/>
            </clipPath>
<clipPath id="terminal-YOKE-line-19">
    <rect x="0" y="465.1" width="1220" height="24.65"/>
            </clipPath>
<clipPath id="terminal-YOKE-line-20">
    <rect x="0" y="489.5" width="1220" height="24.65"/>
            </clipPath>
<clipPath id="terminal-YOKE-line-21">
    <rect x="0" y="513.9" width="1220" height="24.65"/>
            </clipPath>
<clipPath id="terminal-YOKE-line-22">
    <rect x="0" y="538.3" width="1220" height="24.65"/>
            </clipPath>
<clipPath id="terminal-YOKE-line-23">
    <rect x="0" y="562.7" width="1220" height="24.65"/>
            </clipPath>
<clipPath id="terminal-YOKE-line-24">
    <rect x="0" y="587.1" width="1220" height="24.65"/>
            </clipPath>
<clipPath id="terminal-YOKE-line-25">
    <rect x="0" y="611.5" width="1220" height="24.65"/>
            </clipPath>
<clipPath id="terminal-YOKE-line-26">
    <rect x="0" y="635.9" width="1220" height="24.65"/>
            </clipPath>
<clipPath id="terminal-YOKE-line-27">
    <rect x="0" y="660.3" width="1220" height="24.65"/>
            </clipPath>
<clipPath id="terminal-YOKE-line-28">
    <rect x="0" y="684.7" width="1220" height="24.65"/>
            </clipPath>
<clipPath id="terminal-YOKE-line-29">
    <rect x="0" y="709.1" width="1220" height="24.65"/>
            </clipPath>
<clipPath id="terminal-YOKE-line-30">
    <rect x="0" y="733.5" width="1220" height="24.65"/>
            </clipPath>
    </defs>

    <rect fill="#292929" stroke="rgba(255,255,255,0.35)" stroke-width="1" x="1" y="1" width="1236" height="828.8" rx="8"/><text class="terminal-YOKE-title" fill="#c5c8c6" text-anchor="middle" x="618" y="27">yoke&#160;onboard&#160;·&#160;Project</text>
            <g transform="translate(26,22)">
            <circle cx="0" cy="0" r="7" fill="#ff5f57"/>
            <circle cx="22" cy="0" r="7" fill="#febc2e"/>
            <circle cx="44" cy="0" r="7" fill="#28c840"/>
            </g>
        
    <g transform="translate(9, 41)" clip-path="url(#terminal-YOKE-clip-terminal)">
    <rect fill="#121212" x="0" y="1.5" width="1220" height="24.65" shape-rendering="crispEdges"/><rect fill="#121212" x="0" y="25.9" width="36.6" height="24.65" shape-rendering="crispEdges"/><rect fill="#121212" x="36.6" y="25.9" width="73.2" height="24.65" shape-rendering="crispEdges"/><rect fill="#121212" x="109.8" y="25.9" width="24.4" height="24.65" shape-rendering="crispEdges"/><rect fill="#121212" x="134.2" y="25.9" width="573.4" height="24.65" shape-rendering="crispEdges"/><rect fill="#121212" x="707.6" y="25.9" width="512.4" height="24.65" shape-rendering="crispEdges"/><rect fill="#121212" x="0" y="50.3" width="1220" height="24.65" shape-rendering="crispEdges"/><rect fill="#121212" x="0" y="74.7" width="36.6" height="24.65" shape-rendering="crispEdges"/><rect fill="#121212" x="36.6" y="74.7" width="109.8" height="24.65" shape-rendering="crispEdges"/><rect fill="#121212" x="146.4" y="74.7" width="61" height="24.65" shape-rendering="crispEdges"/><rect fill="#121212" x="207.4" y="74.7" width="109.8" height="24.65" shape-rendering="crispEdges"/><rect fill="#121212" x="317.2" y="74.7" width="61" height="24.65" shape-rendering="crispEdges"/><rect fill="#121212" x="378.2" y="74.7" width="97.6" height="24.65" shape-rendering="crispEdges"/><rect fill="#121212" x="475.8" y="74.7" width="61" height="24.65" shape-rendering="crispEdges"/><rect fill="#121212" x="536.8" y="74.7" width="109.8" height="24.65" shape-rendering="crispEdges"/><rect fill="#121212" x="646.6" y="74.7" width="61" height="24.65" shape-rendering="crispEdges"/><rect fill="#121212" x="707.6" y="74.7" width="97.6" height="24.65" shape-rendering="crispEdges"/><rect fill="#121212" x="805.2" y="74.7" width="414.8" height="24.65" shape-rendering="crispEdges"/><rect fill="#121212" x="0" y="99.1" width="36.6" height="24.65" shape-rendering="crispEdges"/><rect fill="#121212" x="36.6" y="99.1" width="1146.8" height="24.65" shape-rendering="crispEdges"/><rect fill="#121212" x="1183.4" y="99.1" width="36.6" height="24.65" shape-rendering="crispEdges"/><rect fill="#121212" x="0" y="123.5" width="1220" height="24.65" shape-rendering="crispEdges"/><rect fill="#121212" x="0" y="147.9" width="36.6" height="24.65" shape-rendering="crispEdges"/><rect fill="#121212" x="36.6" y="147.9" width="561.2" height="24.65" shape-rendering="crispEdges"/><rect fill="#121212" x="597.8" y="147.9" width="622.2" height="24.65" shape-rendering="crispEdges"/><rect fill="#121212" x="0" y="172.3" width="36.6" height="24.65" shape-rendering="crispEdges"/><rect fill="#121212" x="36.6" y="172.3" width="1098" height="24.65" shape-rendering="crispEdges"/><rect fill="#121212" x="1134.6" y="172.3" width="48.8" height="24.65" shape-rendering="crispEdges"/><rect fill="#121212" x="1183.4" y="172.3" width="36.6" height="24.65" shape-rendering="crispEdges"/><rect fill="#121212" x="0" y="196.7" width="36.6" height="24.65" shape-rendering="crispEdges"/><rect fill="#121212" x="36.6" y="196.7" width="0" height="24.65" shape-rendering="crispEdges"/><rect fill="#121212" x="36.6" y="196.7" width="1183.4" height="24.65" shape-rendering="crispEdges"/><rect fill="#121212" x="0" y="221.1" width="36.6" height="24.65" shape-rendering="crispEdges"/><rect fill="#102a1c" x="36.6" y="221.1" width="12.2" height="24.65" shape-rendering="crispEdges"/><rect fill="#102a1c" x="48.8" y="221.1" width="1134.6" height="24.65" shape-rendering="crispEdges"/><rect fill="#121212" x="1183.4" y="221.1" width="36.6" height="24.65" shape-rendering="crispEdges"/><rect fill="#121212" x="0" y="245.5" width="36.6" height="24.65" shape-rendering="crispEdges"/><rect fill="#121212" x="36.6" y="245.5" width="12.2" height="24.65" shape-rendering="crispEdges"/><rect fill="#121212" x="48.8" y="245.5" width="12.2" height="24.65" shape-rendering="crispEdges"/><rect fill="#121212" x="61" y="245.5" width="732" height="24.65" shape-rendering="crispEdges"/><rect fill="#121212" x="793" y="245.5" width="390.4" height="24.65" shape-rendering="crispEdges"/><rect fill="#121212" x="1183.4" y="245.5" width="36.6" height="24.65" shape-rendering="crispEdges"/><rect fill="#121212" x="0" y="269.9" width="36.6" height="24.65" shape-rendering="crispEdges"/><rect fill="#121212" x="36.6" y="269.9" width="12.2" height="24.65" shape-rendering="crispEdges"/><rect fill="#121212" x="48.8" y="269.9" width="12.2" height="24.65" shape-rendering="crispEdges"/><rect fill="#121212" x="61" y="269.9" width="976" height="24.65" shape-rendering="crispEdges"/><rect fill="#121212" x="1037" y="269.9" width="146.4" height="24.65" shape-rendering="crispEdges"/><rect fill="#121212" x="1183.4" y="269.9" width="36.6" height="24.65" shape-rendering="crispEdges"/><rect fill="#121212" x="0" y="294.3" width="36.6" height="24.65" shape-rendering="crispEdges"/><rect fill="#121212" x="36.6" y="294.3" width="1183.4" height="24.65" shape-rendering="crispEdges"/><rect fill="#121212" x="0" y="318.7" width="36.6" height="24.65" shape-rendering="crispEdges"/><rect fill="#121212" x="36.6" y="318.7" width="1183.4" height="24.65" shape-rendering="crispEdges"/><rect fill="#121212" x="0" y="343.1" width="36.6" height="24.65" shape-rendering="crispEdges"/><rect fill="#121212" x="36.6" y="343.1" width="1183.4" height="24.65" shape-rendering="crispEdges"/><rect fill="#121212" x="0" y="367.5" width="36.6" height="24.65" shape-rendering="crispEdges"/><rect fill="#121212" x="36.6" y="367.5" width="1183.4" height="24.65" shape-rendering="crispEdges"/><rect fill="#121212" x="0" y="391.9" width="36.6" height="24.65" shape-rendering="crispEdges"/><rect fill="#121212" x="36.6" y="391.9" width="1183.4" height="24.65" shape-rendering="crispEdges"/><rect fill="#121212" x="0" y="416.3" width="36.6" height="24.65" shape-rendering="crispEdges"/><rect fill="#121212" x="36.6" y="416.3" width="1183.4" height="24.65" shape-rendering="crispEdges"/><rect fill="#121212" x="0" y="440.7" width="36.6" height="24.65" shape-rendering="crispEdges"/><rect fill="#121212" x="36.6" y="440.7" width="1183.4" height="24.65" shape-rendering="crispEdges"/><rect fill="#121212" x="0" y="465.1" width="36.6" height="24.65" shape-rendering="crispEdges"/><rect fill="#121212" x="36.6" y="465.1" width="1183.4" height="24.65" shape-rendering="crispEdges"/><rect fill="#121212" x="0" y="489.5" width="36.6" height="24.65" shape-rendering="crispEdges"/><rect fill="#121212" x="36.6" y="489.5" width="1183.4" height="24.65" shape-rendering="crispEdges"/><rect fill="#121212" x="0" y="513.9" width="36.6" height="24.65" shape-rendering="crispEdges"/><rect fill="#121212" x="36.6" y="513.9" width="1183.4" height="24.65" shape-rendering="crispEdges"/><rect fill="#121212" x="0" y="538.3" width="36.6" height="24.65" shape-rendering="crispEdges"/><rect fill="#121212" x="36.6" y="538.3" width="1183.4" height="24.65" shape-rendering="crispEdges"/><rect fill="#121212" x="0" y="562.7" width="36.6" height="24.65" shape-rendering="crispEdges"/><rect fill="#121212" x="36.6" y="562.7" width="1183.4" height="24.65" shape-rendering="crispEdges"/><rect fill="#121212" x="0" y="587.1" width="36.6" height="24.65" shape-rendering="crispEdges"/><rect fill="#121212" x="36.6" y="587.1" width="1183.4" height="24.65" shape-rendering="crispEdges"/><rect fill="#121212" x="0" y="611.5" width="36.6" height="24.65" shape-rendering="crispEdges"/><rect fill="#121212" x="36.6" y="611.5" width="1183.4" height="24.65" shape-rendering="crispEdges"/><rect fill="#121212" x="0" y="635.9" width="36.6" height="24.65" shape-rendering="crispEdges"/><rect fill="#121212" x="36.6" y="635.9" width="1183.4" height="24.65" shape-rendering="crispEdges"/><rect fill="#121212" x="0" y="660.3" width="36.6" height="24.65" shape-rendering="crispEdges"/><rect fill="#121212" x="36.6" y="660.3" width="1183.4" height="24.65" shape-rendering="crispEdges"/><rect fill="#121212" x="0" y="684.7" width="36.6" height="24.65" shape-rendering="crispEdges"/><rect fill="#121212" x="36.6" y="684.7" width="1183.4" height="24.65" shape-rendering="crispEdges"/><rect fill="#121212" x="0" y="709.1" width="36.6" height="24.65" shape-rendering="crispEdges"/><rect fill="#121212" x="36.6" y="709.1" width="1146.8" height="24.65" shape-rendering="crispEdges"/><rect fill="#121212" x="1183.4" y="709.1" width="36.6" height="24.65" shape-rendering="crispEdges"/><rect fill="#121212" x="0" y="733.5" width="36.6" height="24.65" shape-rendering="crispEdges"/><rect fill="#121212" x="36.6" y="733.5" width="24.4" height="24.65" shape-rendering="crispEdges"/><rect fill="#121212" x="61" y="733.5" width="12.2" height="24.65" shape-rendering="crispEdges"/><rect fill="#121212" x="73.2" y="733.5" width="97.6" height="24.65" shape-rendering="crispEdges"/><rect fill="#121212" x="170.8" y="733.5" width="61" height="24.65" shape-rendering="crispEdges"/><rect fill="#121212" x="231.8" y="733.5" width="12.2" height="24.65" shape-rendering="crispEdges"/><rect fill="#121212" x="244" y="733.5" width="12.2" height="24.65" shape-rendering="crispEdges"/><rect fill="#121212" x="256.2" y="733.5" width="73.2" height="24.65" shape-rendering="crispEdges"/><rect fill="#121212" x="329.4" y="733.5" width="61" height="24.65" shape-rendering="crispEdges"/><rect fill="#121212" x="390.4" y="733.5" width="36.6" height="24.65" shape-rendering="crispEdges"/><rect fill="#121212" x="427" y="733.5" width="12.2" height="24.65" shape-rendering="crispEdges"/><rect fill="#121212" x="439.2" y="733.5" width="48.8" height="24.65" shape-rendering="crispEdges"/><rect fill="#121212" x="488" y="733.5" width="61" height="24.65" shape-rendering="crispEdges"/><rect fill="#121212" x="549" y="733.5" width="24.4" height="24.65" shape-rendering="crispEdges"/><rect fill="#121212" x="573.4" y="733.5" width="12.2" height="24.65" shape-rendering="crispEdges"/><rect fill="#121212" x="585.6" y="733.5" width="48.8" height="24.65" shape-rendering="crispEdges"/><rect fill="#121212" x="634.4" y="733.5" width="585.6" height="24.65" shape-rendering="crispEdges"/><rect fill="#121212" x="0" y="757.9" width="1220" height="24.65" shape-rendering="crispEdges"/>
    <g class="terminal-YOKE-matrix">
    <text class="terminal-YOKE-r1" x="1220" y="20" textLength="12.2" clip-path="url(#terminal-YOKE-line-0)">
</text><text class="terminal-YOKE-r2" x="36.6" y="44.4" textLength="73.2" clip-path="url(#terminal-YOKE-line-1)">☀&#160;Yoke</text><text class="terminal-YOKE-r4" x="134.2" y="44.4" textLength="573.4" clip-path="url(#terminal-YOKE-line-1)">·&#160;Set&#160;up&#160;your&#160;machine&#160;and&#160;onboard&#160;your&#160;projects</text><text class="terminal-YOKE-r1" x="1220" y="44.4" textLength="12.2" clip-path="url(#terminal-YOKE-line-1)">
</text><text class="terminal-YOKE-r1" x="1220" y="68.8" textLength="12.2" clip-path="url(#terminal-YOKE-line-2)">
</text><text class="terminal-YOKE-r2" x="36.6" y="93.2" textLength="109.8" clip-path="url(#terminal-YOKE-line-3)">✔&#160;Install</text><text class="terminal-YOKE-r5" x="146.4" y="93.2" textLength="61" clip-path="url(#terminal-YOKE-line-3)">&#160;───&#160;</text><text class="terminal-YOKE-r2" x="207.4" y="93.2" textLength="109.8" clip-path="url(#terminal-YOKE-line-3)">✔&#160;Account</text><text class="terminal-YOKE-r5" x="317.2" y="93.2" textLength="61" clip-path="url(#terminal-YOKE-line-3)">&#160;───&#160;</text><text class="terminal-YOKE-r2" x="378.2" y="93.2" textLength="97.6" clip-path="url(#terminal-YOKE-line-3)">✔&#160;GitHub</text><text class="terminal-YOKE-r5" x="475.8" y="93.2" textLength="61" clip-path="url(#terminal-YOKE-line-3)">&#160;───&#160;</text><text class="terminal-YOKE-r6" x="536.8" y="93.2" textLength="109.8" clip-path="url(#terminal-YOKE-line-3)">●&#160;Project</text><text class="terminal-YOKE-r5" x="646.6" y="93.2" textLength="61" clip-path="url(#terminal-YOKE-line-3)">&#160;───&#160;</text><text class="terminal-YOKE-r5" x="707.6" y="93.2" textLength="97.6" clip-path="url(#terminal-YOKE-line-3)">○&#160;Review</text><text class="terminal-YOKE-r1" x="1220" y="93.2" textLength="12.2" clip-path="url(#terminal-YOKE-line-3)">
</text><text class="terminal-YOKE-r7" x="36.6" y="117.6" textLength="1146.8" clip-path="url(#terminal-YOKE-line-4)">──────────────────────────────────────────────────────────────────────────────────────────────</text><text class="terminal-YOKE-r1" x="1220" y="117.6" textLength="12.2" clip-path="url(#terminal-YOKE-line-4)">
</text><text class="terminal-YOKE-r1" x="1220" y="142" textLength="12.2" clip-path="url(#terminal-YOKE-line-5)">
</text><text class="terminal-YOKE-r8" x="36.6" y="166.4" textLength="561.2" clip-path="url(#terminal-YOKE-line-6)">How&#160;should&#160;Yoke&#160;manage&#160;this&#160;project&#160;on&#160;GitHub?</text><text class="terminal-YOKE-r1" x="1220" y="166.4" textLength="12.2" clip-path="url(#terminal-YOKE-line-6)">
</text><text class="terminal-YOKE-r4" x="36.6" y="190.8" textLength="1098" clip-path="url(#terminal-YOKE-line-7)">Bind&#160;this&#160;project&#160;to&#160;a&#160;repository&#160;the&#160;Yoke&#160;GitHub&#160;App&#160;can&#160;access,&#160;or&#160;keep&#160;it&#160;backlog-only.</text><text class="terminal-YOKE-r1" x="1220" y="190.8" textLength="12.2" clip-path="url(#terminal-YOKE-line-7)">
</text><text class="terminal-YOKE-r1" x="1220" y="215.2" textLength="12.2" clip-path="url(#terminal-YOKE-line-8)">
</text><text class="terminal-YOKE-r9" x="36.6" y="239.6" textLength="12.2" clip-path="url(#terminal-YOKE-line-9)">█</text><text class="terminal-YOKE-r6" x="48.8" y="239.6" textLength="1134.6" clip-path="url(#terminal-YOKE-line-9)">›&#160;&#160;Use&#160;connected&#160;repo&#160;&#160;&#160;&#160;&#160;&#160;&#160;&#160;&#160;&#160;&#160;&#160;&#160;&#160;&#160;&#160;&#160;&#160;&#160;&#160;&#160;&#160;&#160;&#160;&#160;&#160;&#160;&#160;&#160;&#160;&#160;&#160;bind&#160;this&#160;repo&#160;using&#160;existing&#160;App&#160;access</text><text class="terminal-YOKE-r1" x="1220" y="239.6" textLength="12.2" clip-path="url(#terminal-YOKE-line-9)">
</text><text class="terminal-YOKE-r4" x="61" y="264" textLength="732" clip-path="url(#terminal-YOKE-line-10)">·&#160;&#160;Add&#160;repo&#160;access&#160;&#160;&#160;&#160;&#160;&#160;&#160;&#160;&#160;&#160;&#160;&#160;&#160;&#160;&#160;&#160;&#160;&#160;&#160;&#160;&#160;&#160;&#160;&#160;&#160;&#160;&#160;&#160;&#160;&#160;&#160;&#160;&#160;&#160;&#160;&#160;&#160;&#160;&#160;&#160;&#160;&#160;</text><text class="terminal-YOKE-r11" x="793" y="264" textLength="390.4" clip-path="url(#terminal-YOKE-line-10)">open&#160;GitHub&#160;to&#160;change&#160;app&#160;access</text><text class="terminal-YOKE-r1" x="1220" y="264" textLength="12.2" clip-path="url(#terminal-YOKE-line-10)">
</text><text class="terminal-YOKE-r4" x="61" y="288.4" textLength="976" clip-path="url(#terminal-YOKE-line-11)">·&#160;&#160;Skip&#160;GitHub&#160;for&#160;this&#160;project&#160;&#160;&#160;&#160;&#160;&#160;&#160;&#160;&#160;&#160;&#160;&#160;&#160;&#160;&#160;&#160;&#160;&#160;&#160;&#160;&#160;&#160;&#160;&#160;&#160;&#160;&#160;&#160;&#160;&#160;&#160;&#160;&#160;&#160;&#160;&#160;&#160;&#160;&#160;&#160;&#160;&#160;&#160;&#160;&#160;&#160;&#160;&#160;&#160;</text><text class="terminal-YOKE-r11" x="1037" y="288.4" textLength="146.4" clip-path="url(#terminal-YOKE-line-11)">backlog-only</text><text class="terminal-YOKE-r1" x="1220" y="288.4" textLength="12.2" clip-path="url(#terminal-YOKE-line-11)">
</text><text class="terminal-YOKE-r1" x="1220" y="312.8" textLength="12.2" clip-path="url(#terminal-YOKE-line-12)">
</text><text class="terminal-YOKE-r1" x="1220" y="337.2" textLength="12.2" clip-path="url(#terminal-YOKE-line-13)">
</text><text class="terminal-YOKE-r1" x="1220" y="361.6" textLength="12.2" clip-path="url(#terminal-YOKE-line-14)">
</text><text class="terminal-YOKE-r1" x="1220" y="386" textLength="12.2" clip-path="url(#terminal-YOKE-line-15)">
</text><text class="terminal-YOKE-r1" x="1220" y="410.4" textLength="12.2" clip-path="url(#terminal-YOKE-line-16)">
</text><text class="terminal-YOKE-r1" x="1220" y="434.8" textLength="12.2" clip-path="url(#terminal-YOKE-line-17)">
</text><text class="terminal-YOKE-r1" x="1220" y="459.2" textLength="12.2" clip-path="url(#terminal-YOKE-line-18)">
</text><text class="terminal-YOKE-r1" x="1220" y="483.6" textLength="12.2" clip-path="url(#terminal-YOKE-line-19)">
</text><text class="terminal-YOKE-r1" x="1220" y="508" textLength="12.2" clip-path="url(#terminal-YOKE-line-20)">
</text><text class="terminal-YOKE-r1" x="1220" y="532.4" textLength="12.2" clip-path="url(#terminal-YOKE-line-21)">
</text><text class="terminal-YOKE-r1" x="1220" y="556.8" textLength="12.2" clip-path="url(#terminal-YOKE-line-22)">
</text><text class="terminal-YOKE-r1" x="1220" y="581.2" textLength="12.2" clip-path="url(#terminal-YOKE-line-23)">
</text><text class="terminal-YOKE-r1" x="1220" y="605.6" textLength="12.2" clip-path="url(#terminal-YOKE-line-24)">
</text><text class="terminal-YOKE-r1" x="1220" y="630" textLength="12.2" clip-path="url(#terminal-YOKE-line-25)">
</text><text class="terminal-YOKE-r1" x="1220" y="654.4" textLength="12.2" clip-path="url(#terminal-YOKE-line-26)">
</text><text class="terminal-YOKE-r1" x="1220" y="678.8" textLength="12.2" clip-path="url(#terminal-YOKE-line-27)">
</text><text class="terminal-YOKE-r1" x="1220" y="703.2" textLength="12.2" clip-path="url(#terminal-YOKE-line-28)">
</text><text class="terminal-YOKE-r7" x="36.6" y="727.6" textLength="1146.8" clip-path="url(#terminal-YOKE-line-29)">──────────────────────────────────────────────────────────────────────────────────────────────</text><text class="terminal-YOKE-r1" x="1220" y="727.6" textLength="12.2" clip-path="url(#terminal-YOKE-line-29)">
</text><text class="terminal-YOKE-r3" x="36.6" y="752" textLength="24.4" clip-path="url(#terminal-YOKE-line-30)">↑↓</text><text class="terminal-YOKE-r4" x="73.2" y="752" textLength="97.6" clip-path="url(#terminal-YOKE-line-30)">navigate</text><text class="terminal-YOKE-r3" x="231.8" y="752" textLength="12.2" clip-path="url(#terminal-YOKE-line-30)">↵</text><text class="terminal-YOKE-r4" x="256.2" y="752" textLength="73.2" clip-path="url(#terminal-YOKE-line-30)">select</text><text class="terminal-YOKE-r3" x="390.4" y="752" textLength="36.6" clip-path="url(#terminal-YOKE-line-30)">esc</text><text class="terminal-YOKE-r4" x="439.2" y="752" textLength="48.8" clip-path="url(#terminal-YOKE-line-30)">back</text><text class="terminal-YOKE-r3" x="549" y="752" textLength="24.4" clip-path="url(#terminal-YOKE-line-30)">^c</text><text class="terminal-YOKE-r4" x="585.6" y="752" textLength="48.8" clip-path="url(#terminal-YOKE-line-30)">quit</text><text class="terminal-YOKE-r1" x="1220" y="752" textLength="12.2" clip-path="url(#terminal-YOKE-line-30)">
</text>
    </g>
    </g>
</svg>
